# xmcd
#
# Track frame offsets:
#	150
#	14250
#	29400
#	47550
#	66600
#	84900
#	98400
#	111600
#	133500
#	147000
#	164100
#	176850
#	193500
#	207450
#	228750
#
# Disc length: 3178 seconds
#
# Revision: 1
# Processed by: cddbd v1.5.2PL0 Copyright (c) Steve Scherf et al.
# Submitted via: audiograbber 1.83.01
#
DISCID=d30c680f
DTITLE=McCarty, Fred - Songs of the Old West
DYEAR=2005
DGENRE=
TTITLE0=Cattle Call
TTITLE1=Ghost Riders In The Sky
TTITLE2=South Of The Border
TTITLE3=Take Me Back To Tulsa/San Antonio Rose
TTITLE4=Tennessee Waltz
TTITLE5=Yellow Rose of Texas
TTITLE6=Oh Susannah
TTITLE7=Man Of Constant Sorrow
TTITLE8=Riding Down the Canyon
TTITLE9=Home On the Range
TTITLE10=Back In the Saddle
TTITLE11=Don't Fence Me In
TTITLE12=Red River Valley
TTITLE13=El Paso
TTITLE14=Happy Trails
EXTD=Independent CD by artist
EXTT0=
EXTT1=
EXTT2=
EXTT3=
EXTT4=
EXTT5=
EXTT6=
EXTT7=
EXTT8=
EXTT9=
EXTT10=
EXTT11=
EXTT12=
EXTT13=
EXTT14=
PLAYORDER=
